<svg xmlns="http://www.w3.org/2000/svg" viewBox="0 0 297.39 100"><defs><style>.cls-1{fill:#fff;}</style></defs><g id="Livello_2" data-name="Livello 2"><g id="Livello_1-2" data-name="Livello 1"><path class="cls-1" d="M17.06,98.5A15.57,15.57,0,0,1,1.5,82.94V17.06A15.58,15.58,0,0,1,17.06,1.5H82.94A15.58,15.58,0,0,1,98.5,17.06V82.94a15.37,15.37,0,0,1-3,9.19A15.6,15.6,0,0,1,82.94,98.5Z"/><path d="M82.94,3A14.08,14.08,0,0,1,97,17.06V82.94a13.92,13.92,0,0,1-2.72,8.31A14.11,14.11,0,0,1,82.94,97H17.06A14.07,14.07,0,0,1,3,82.94V17.06A14.08,14.08,0,0,1,17.06,3H82.94m0-3H17.06A17.06,17.06,0,0,0,0,17.06V82.94A17.08,17.08,0,0,0,17.06,100H82.94A17.07,17.07,0,0,0,100,82.94V17.06A17.06,17.06,0,0,0,82.94,0Z"/><path d="M124.56,32.12h18.21c7.6,0,12.49,3.74,12.49,9.42a8.22,8.22,0,0,1-5.51,8.06v.21A8.73,8.73,0,0,1,157,58.76c0,5.93-5.36,9.78-13.58,9.78H124.56Zm16.5,15.14c3.85,0,6.34-2,6.34-4.74,0-2.34-2-4-5.88-4h-8.79v8.74Zm1.56,14.83c3.85,0,6.34-1.72,6.34-4.37s-2.28-4.37-5.72-4.37H132.73v8.74Z"/><path d="M162.33,28.37h8V35.5h-8Zm.11,14.94h7.8V68.54h-7.8Z"/><path d="M204.53,43.31V69.17c0,7.38-5.62,12.33-13.95,12.33S177.21,77.23,176.43,71h7.86c.52,2.49,2.7,4.16,6.24,4.16,3.7,0,6.14-2.34,6.14-5.93V66h-.1a11.09,11.09,0,0,1-8,3.28c-7.55,0-12.86-5.57-12.86-13.42s5.36-13.38,12.91-13.38a11,11,0,0,1,8,3.23h.16V43.31Zm-7.86,12.54c0-4.27-2.7-7.29-6.56-7.29s-6.71,3-6.71,7.29,2.81,7.28,6.71,7.28S196.67,60.16,196.67,55.85Z"/><path d="M211.18,32.12h18.21c7.6,0,12.49,3.74,12.49,9.42a8.22,8.22,0,0,1-5.51,8.06v.21a8.73,8.73,0,0,1,7.28,8.95c0,5.93-5.36,9.78-13.58,9.78H211.18Zm16.5,15.14c3.85,0,6.34-2,6.34-4.74,0-2.34-2-4-5.87-4h-8.8v8.74Zm1.56,14.83c3.85,0,6.35-1.72,6.35-4.37s-2.29-4.37-5.73-4.37H219.35v8.74Z"/><path d="M249.06,43.31h7.7v3h.1a7.75,7.75,0,0,1,6.82-3.85,9.24,9.24,0,0,1,2.7.32v7.07a11.64,11.64,0,0,0-2.6-.31c-4.32,0-6.92,2.71-6.92,7.34V68.54h-7.8Z"/><path d="M268.77,56c0-8.12,5.73-13.48,14.31-13.48S297.39,47.83,297.39,56s-5.72,13.42-14.31,13.42S268.77,64,268.77,56ZM290,56c0-4.22-2.76-7-6.87-7s-6.87,2.8-6.87,7,2.76,7,6.87,7S290,60.16,290,56Z"/><path class="cls-1" d="M50,92.5C38.22,92.5,29,73.83,29,50S38.22,7.5,50,7.5,71,26.17,71,50,61.77,92.5,50,92.5Zm0-81c-9.22,0-17,17.63-17,38.5s7.78,38.5,17,38.5S67,70.87,67,50,59.21,11.5,50,11.5Z"/><path d="M50,13.5c7.08,0,15,15.61,15,36.5S57.08,86.5,50,86.5,35,70.89,35,50s7.92-36.5,15-36.5m0-4C39.51,9.5,31,27.63,31,50s8.51,40.5,19,40.5S69,72.37,69,50,60.49,9.5,50,9.5Z"/><path class="cls-1" d="M50,71C26.17,71,7.5,61.78,7.5,50S26.17,29,50,29s42.5,9.23,42.5,21S73.83,71,50,71Zm0-38c-20.87,0-38.5,7.79-38.5,17S29.13,67,50,67s38.5-7.78,38.5-17S70.87,33,50,33Z"/><path d="M50,35c20.89,0,36.5,7.92,36.5,15S70.89,65,50,65,13.5,57.08,13.5,50,29.11,35,50,35m0-4C27.63,31,9.5,39.51,9.5,50S27.63,69,50,69s40.5-8.51,40.5-19S72.37,31,50,31Z"/><path class="cls-1" d="M70.23,83.63c-9.74,0-23.13-6.83-35.08-18.78C18.3,48,11.62,28.27,20,20S48,18.3,64.85,35.15s23.53,36.58,15.2,44.9C77.63,82.48,74.24,83.63,70.23,83.63ZM29.77,20.33a9.52,9.52,0,0,0-7,2.45C16.26,29.29,23.22,47.26,38,62s32.73,21.72,39.24,15.2S76.78,52.74,62,38C51,27,38.27,20.33,29.77,20.33Z"/><path d="M29.76,22.36h0c8.39,0,20.5,6.69,30.85,17C75.38,54.17,80.82,70.8,75.81,75.81c-1.22,1.21-3.09,1.83-5.57,1.83-8.39,0-20.5-6.69-30.85-17C24.62,45.83,19.18,29.2,24.19,24.19c1.22-1.21,3.09-1.83,5.57-1.83m0-4c-3.46,0-6.36,1-8.4,3-7.42,7.42-.61,26.26,15.2,42.08C48,74.91,61.1,81.64,70.24,81.64c3.46,0,6.36-1,8.4-3,7.42-7.42.61-26.26-15.2-42.08C52,25.09,38.9,18.36,29.76,18.36Z"/><path class="cls-1" d="M29.77,83.63c-4,0-7.4-1.15-9.82-3.58-8.33-8.32-1.65-28,15.2-44.9S71.73,11.62,80.05,20,81.7,48,64.85,64.85C52.9,76.79,39.51,83.63,29.77,83.63ZM70.21,20.37a26.26,26.26,0,0,0-8.78,1.76C53.75,24.9,45.43,30.53,38,38S24.9,53.75,22.13,61.43c-2.55,7.07-2.32,12.83.65,15.79s8.72,3.2,15.79.65C46.25,75.1,54.57,69.47,62,62S75.1,46.25,77.87,38.57c2.55-7.07,2.32-12.83-.65-15.79C75.62,21.18,73.21,20.37,70.21,20.37Z"/><path d="M70.24,18.36v4h0c2.48,0,4.35.62,5.57,1.83,5,5-.43,21.64-15.2,36.42-10.35,10.34-22.46,17-30.85,17-2.48,0-4.35-.62-5.57-1.83-5-5,.43-21.64,15.2-36.42,10.35-10.34,22.46-17,30.85-17v-4m0,0c-9.14,0-22.2,6.73-33.68,18.2C20.75,52.38,13.94,71.22,21.36,78.64c2,2,4.94,3,8.4,3,9.14,0,22.2-6.73,33.68-18.2,15.81-15.82,22.62-34.66,15.2-42.08-2-2-4.94-3-8.4-3Z"/><polygon points="50 28.29 28 49.5 50 71.5 72.15 50 50 28.29"/><circle class="cls-1" cx="50" cy="50.5" r="15.5"/><path d="M50,67.5a17,17,0,1,1,17-17A17,17,0,0,1,50,67.5Zm0-31a14,14,0,1,0,14,14A14,14,0,0,0,50,36.5Z"/><path d="M50,50.5l2.51-5.45A6,6,0,1,0,56,50.5a5.93,5.93,0,0,0-.33-2Z"/></g></g></svg>